<mxfile host="app.diagrams.net" modified="2020-03-22T04:38:51.888Z" agent="Mozilla/5.0 (Macintosh; Intel Mac OS X 10_14_6) AppleWebKit/537.36 (KHTML, like Gecko) Chrome/80.0.3987.149 Safari/537.36" etag="31Ce7TfKBIw-S-26OU08" version="12.8.8" type="github">
  <diagram id="gOudTkxrZDwFtmDe6En7" name="Page-1">
    <mxGraphModel dx="1660" dy="740" grid="1" gridSize="10" guides="1" tooltips="1" connect="1" arrows="1" fold="1" page="1" pageScale="1" pageWidth="827" pageHeight="1169" math="0" shadow="0">
      <root>
        <mxCell id="0" />
        <mxCell id="1" parent="0" />
        <mxCell id="xv1535ryTHH4GR366CZt-1" style="rounded=0;orthogonalLoop=1;jettySize=auto;html=1;exitX=0;exitY=0.5;exitDx=0;exitDy=0;entryX=0.5;entryY=0;entryDx=0;entryDy=0;fillColor=#CCCCCC;" edge="1" parent="1" source="xv1535ryTHH4GR366CZt-5" target="xv1535ryTHH4GR366CZt-9">
          <mxGeometry relative="1" as="geometry" />
        </mxCell>
        <mxCell id="xv1535ryTHH4GR366CZt-2" style="rounded=0;orthogonalLoop=1;jettySize=auto;html=1;exitX=1;exitY=0.5;exitDx=0;exitDy=0;entryX=0.5;entryY=0;entryDx=0;entryDy=0;fillColor=#CCCCCC;" edge="1" parent="1" source="xv1535ryTHH4GR366CZt-5" target="xv1535ryTHH4GR366CZt-11">
          <mxGeometry relative="1" as="geometry" />
        </mxCell>
        <mxCell id="xv1535ryTHH4GR366CZt-3" style="rounded=0;orthogonalLoop=1;jettySize=auto;html=1;exitX=0.5;exitY=1;exitDx=0;exitDy=0;fillColor=#CCCCCC;" edge="1" parent="1" source="xv1535ryTHH4GR366CZt-5" target="xv1535ryTHH4GR366CZt-7">
          <mxGeometry relative="1" as="geometry" />
        </mxCell>
        <mxCell id="xv1535ryTHH4GR366CZt-4" style="rounded=0;orthogonalLoop=1;jettySize=auto;html=1;exitX=0.75;exitY=1;exitDx=0;exitDy=0;entryX=0.75;entryY=0;entryDx=0;entryDy=0;fillColor=#CCCCCC;" edge="1" parent="1" source="xv1535ryTHH4GR366CZt-5" target="xv1535ryTHH4GR366CZt-16">
          <mxGeometry relative="1" as="geometry" />
        </mxCell>
        <mxCell id="xv1535ryTHH4GR366CZt-28" style="edgeStyle=none;rounded=0;orthogonalLoop=1;jettySize=auto;html=1;exitX=1;exitY=0.5;exitDx=0;exitDy=0;entryX=0;entryY=0.5;entryDx=0;entryDy=0;" edge="1" parent="1" source="xv1535ryTHH4GR366CZt-5" target="xv1535ryTHH4GR366CZt-27">
          <mxGeometry relative="1" as="geometry" />
        </mxCell>
        <mxCell id="xv1535ryTHH4GR366CZt-30" style="edgeStyle=none;rounded=0;orthogonalLoop=1;jettySize=auto;html=1;exitX=1;exitY=0.5;exitDx=0;exitDy=0;entryX=0;entryY=0.5;entryDx=0;entryDy=0;" edge="1" parent="1" source="xv1535ryTHH4GR366CZt-5" target="xv1535ryTHH4GR366CZt-29">
          <mxGeometry relative="1" as="geometry" />
        </mxCell>
        <mxCell id="xv1535ryTHH4GR366CZt-5" value="应用" style="rounded=1;whiteSpace=wrap;html=1;fillColor=#FFCCCC;" vertex="1" parent="1">
          <mxGeometry x="330" y="330" width="120" height="60" as="geometry" />
        </mxCell>
        <mxCell id="xv1535ryTHH4GR366CZt-6" style="rounded=0;orthogonalLoop=1;jettySize=auto;html=1;exitX=0.5;exitY=1;exitDx=0;exitDy=0;entryX=0.5;entryY=0;entryDx=0;entryDy=0;fillColor=#CCCCCC;" edge="1" parent="1" source="xv1535ryTHH4GR366CZt-7" target="xv1535ryTHH4GR366CZt-16">
          <mxGeometry relative="1" as="geometry" />
        </mxCell>
        <mxCell id="xv1535ryTHH4GR366CZt-7" value="TBase" style="rounded=1;whiteSpace=wrap;html=1;fillColor=#CCCCCC;" vertex="1" parent="1">
          <mxGeometry x="270" y="450" width="120" height="60" as="geometry" />
        </mxCell>
        <mxCell id="xv1535ryTHH4GR366CZt-8" style="rounded=0;orthogonalLoop=1;jettySize=auto;html=1;exitX=0.5;exitY=1;exitDx=0;exitDy=0;entryX=0;entryY=0.5;entryDx=0;entryDy=0;fillColor=#CCCCCC;" edge="1" parent="1" source="xv1535ryTHH4GR366CZt-9" target="xv1535ryTHH4GR366CZt-16">
          <mxGeometry relative="1" as="geometry" />
        </mxCell>
        <mxCell id="xv1535ryTHH4GR366CZt-25" style="edgeStyle=none;rounded=0;orthogonalLoop=1;jettySize=auto;html=1;exitX=0;exitY=0.5;exitDx=0;exitDy=0;entryX=1;entryY=0.5;entryDx=0;entryDy=0;" edge="1" parent="1" source="xv1535ryTHH4GR366CZt-9" target="xv1535ryTHH4GR366CZt-21">
          <mxGeometry relative="1" as="geometry" />
        </mxCell>
        <mxCell id="xv1535ryTHH4GR366CZt-26" style="edgeStyle=none;rounded=0;orthogonalLoop=1;jettySize=auto;html=1;exitX=0;exitY=0.5;exitDx=0;exitDy=0;entryX=1;entryY=0.5;entryDx=0;entryDy=0;" edge="1" parent="1" source="xv1535ryTHH4GR366CZt-9" target="xv1535ryTHH4GR366CZt-22">
          <mxGeometry relative="1" as="geometry" />
        </mxCell>
        <mxCell id="xv1535ryTHH4GR366CZt-9" value="DB" style="rounded=1;whiteSpace=wrap;html=1;fillColor=#CCCCCC;" vertex="1" parent="1">
          <mxGeometry x="110" y="450" width="120" height="60" as="geometry" />
        </mxCell>
        <mxCell id="xv1535ryTHH4GR366CZt-10" style="rounded=0;orthogonalLoop=1;jettySize=auto;html=1;exitX=0.5;exitY=1;exitDx=0;exitDy=0;entryX=1;entryY=0.5;entryDx=0;entryDy=0;fillColor=#CCCCCC;" edge="1" parent="1" source="xv1535ryTHH4GR366CZt-11" target="xv1535ryTHH4GR366CZt-16">
          <mxGeometry relative="1" as="geometry" />
        </mxCell>
        <mxCell id="xv1535ryTHH4GR366CZt-24" style="rounded=0;orthogonalLoop=1;jettySize=auto;html=1;exitX=1;exitY=0.5;exitDx=0;exitDy=0;entryX=0;entryY=0.5;entryDx=0;entryDy=0;" edge="1" parent="1" source="xv1535ryTHH4GR366CZt-11" target="xv1535ryTHH4GR366CZt-23">
          <mxGeometry relative="1" as="geometry" />
        </mxCell>
        <mxCell id="xv1535ryTHH4GR366CZt-11" value="MsgBroker" style="rounded=1;whiteSpace=wrap;html=1;fillColor=#CCCCCC;" vertex="1" parent="1">
          <mxGeometry x="460" y="460" width="120" height="60" as="geometry" />
        </mxCell>
        <mxCell id="xv1535ryTHH4GR366CZt-12" style="rounded=0;orthogonalLoop=1;jettySize=auto;html=1;exitX=0;exitY=0.5;exitDx=0;exitDy=0;entryX=1;entryY=0.25;entryDx=0;entryDy=0;fillColor=#E6E6E6;" edge="1" parent="1" source="xv1535ryTHH4GR366CZt-16" target="xv1535ryTHH4GR366CZt-17">
          <mxGeometry relative="1" as="geometry" />
        </mxCell>
        <mxCell id="xv1535ryTHH4GR366CZt-13" style="rounded=0;orthogonalLoop=1;jettySize=auto;html=1;exitX=0.25;exitY=1;exitDx=0;exitDy=0;entryX=0.5;entryY=0;entryDx=0;entryDy=0;fillColor=#E6E6E6;" edge="1" parent="1" source="xv1535ryTHH4GR366CZt-16" target="xv1535ryTHH4GR366CZt-18">
          <mxGeometry relative="1" as="geometry" />
        </mxCell>
        <mxCell id="xv1535ryTHH4GR366CZt-14" style="rounded=0;orthogonalLoop=1;jettySize=auto;html=1;exitX=0.75;exitY=1;exitDx=0;exitDy=0;entryX=0.5;entryY=0;entryDx=0;entryDy=0;fillColor=#E6E6E6;" edge="1" parent="1" source="xv1535ryTHH4GR366CZt-16" target="xv1535ryTHH4GR366CZt-19">
          <mxGeometry relative="1" as="geometry" />
        </mxCell>
        <mxCell id="xv1535ryTHH4GR366CZt-15" style="rounded=0;orthogonalLoop=1;jettySize=auto;html=1;exitX=1;exitY=0.5;exitDx=0;exitDy=0;entryX=0;entryY=0.5;entryDx=0;entryDy=0;fillColor=#E6E6E6;" edge="1" parent="1" source="xv1535ryTHH4GR366CZt-16" target="xv1535ryTHH4GR366CZt-20">
          <mxGeometry relative="1" as="geometry" />
        </mxCell>
        <mxCell id="xv1535ryTHH4GR366CZt-16" value="Server" style="rounded=1;whiteSpace=wrap;html=1;fillColor=#FFCCCC;" vertex="1" parent="1">
          <mxGeometry x="330" y="570" width="120" height="60" as="geometry" />
        </mxCell>
        <mxCell id="xv1535ryTHH4GR366CZt-17" value="CPU" style="shape=document;whiteSpace=wrap;html=1;boundedLbl=1;fillColor=#E6E6E6;" vertex="1" parent="1">
          <mxGeometry x="100" y="630" width="120" height="80" as="geometry" />
        </mxCell>
        <mxCell id="xv1535ryTHH4GR366CZt-18" value="Memory" style="shape=document;whiteSpace=wrap;html=1;boundedLbl=1;fillColor=#E6E6E6;" vertex="1" parent="1">
          <mxGeometry x="230" y="710" width="120" height="80" as="geometry" />
        </mxCell>
        <mxCell id="xv1535ryTHH4GR366CZt-19" value="ThreadPool" style="shape=document;whiteSpace=wrap;html=1;boundedLbl=1;fillColor=#E6E6E6;" vertex="1" parent="1">
          <mxGeometry x="420" y="710" width="120" height="80" as="geometry" />
        </mxCell>
        <mxCell id="xv1535ryTHH4GR366CZt-20" value="Disk" style="shape=document;whiteSpace=wrap;html=1;boundedLbl=1;fillColor=#E6E6E6;" vertex="1" parent="1">
          <mxGeometry x="580" y="630" width="120" height="80" as="geometry" />
        </mxCell>
        <mxCell id="xv1535ryTHH4GR366CZt-21" value="烂SQL" style="shape=document;whiteSpace=wrap;html=1;boundedLbl=1;" vertex="1" parent="1">
          <mxGeometry x="-110" y="420" width="120" height="80" as="geometry" />
        </mxCell>
        <mxCell id="xv1535ryTHH4GR366CZt-22" value="逻辑读" style="shape=document;whiteSpace=wrap;html=1;boundedLbl=1;" vertex="1" parent="1">
          <mxGeometry x="-110" y="560" width="120" height="80" as="geometry" />
        </mxCell>
        <mxCell id="xv1535ryTHH4GR366CZt-23" value="队列积压" style="shape=document;whiteSpace=wrap;html=1;boundedLbl=1;" vertex="1" parent="1">
          <mxGeometry x="650" y="450" width="120" height="80" as="geometry" />
        </mxCell>
        <mxCell id="xv1535ryTHH4GR366CZt-27" value="common-error" style="shape=document;whiteSpace=wrap;html=1;boundedLbl=1;" vertex="1" parent="1">
          <mxGeometry x="560" y="220" width="120" height="80" as="geometry" />
        </mxCell>
        <mxCell id="xv1535ryTHH4GR366CZt-29" value="response-error" style="shape=document;whiteSpace=wrap;html=1;boundedLbl=1;" vertex="1" parent="1">
          <mxGeometry x="560" y="320" width="120" height="80" as="geometry" />
        </mxCell>
      </root>
    </mxGraphModel>
  </diagram>
</mxfile>
